%TF.GenerationSoftware,KiCad,Pcbnew,10.0.1*%
%TF.CreationDate,2026-04-26T03:30:13-04:00*%
%TF.ProjectId,MacropadV1,4d616372-6f70-4616-9456-312e6b696361,rev?*%
%TF.SameCoordinates,Original*%
%TF.FileFunction,Legend,Bot*%
%TF.FilePolarity,Positive*%
%FSLAX46Y46*%
G04 Gerber Fmt 4.6, Leading zero omitted, Abs format (unit mm)*
G04 Created by KiCad (PCBNEW 10.0.1) date 2026-04-26 03:30:13*
%MOMM*%
%LPD*%
G01*
G04 APERTURE LIST*
%ADD10C,0.101600*%
%ADD11C,0.150000*%
%ADD12C,0.127000*%
%ADD13C,0.120000*%
%ADD14C,0.254000*%
%ADD15C,0.025400*%
G04 APERTURE END LIST*
D10*
X30252333Y-32876985D02*
X30252333Y-33596652D01*
X30252333Y-33596652D02*
X30210000Y-33681318D01*
X30210000Y-33681318D02*
X30167666Y-33723652D01*
X30167666Y-33723652D02*
X30083000Y-33765985D01*
X30083000Y-33765985D02*
X29913666Y-33765985D01*
X29913666Y-33765985D02*
X29829000Y-33723652D01*
X29829000Y-33723652D02*
X29786666Y-33681318D01*
X29786666Y-33681318D02*
X29744333Y-33596652D01*
X29744333Y-33596652D02*
X29744333Y-32876985D01*
X28855333Y-33765985D02*
X29363333Y-33765985D01*
X29109333Y-33765985D02*
X29109333Y-32876985D01*
X29109333Y-32876985D02*
X29194000Y-33003985D01*
X29194000Y-33003985D02*
X29278667Y-33088652D01*
X29278667Y-33088652D02*
X29363333Y-33130985D01*
D11*
X34336904Y-29727200D02*
X34194047Y-29774819D01*
X34194047Y-29774819D02*
X33955952Y-29774819D01*
X33955952Y-29774819D02*
X33860714Y-29727200D01*
X33860714Y-29727200D02*
X33813095Y-29679580D01*
X33813095Y-29679580D02*
X33765476Y-29584342D01*
X33765476Y-29584342D02*
X33765476Y-29489104D01*
X33765476Y-29489104D02*
X33813095Y-29393866D01*
X33813095Y-29393866D02*
X33860714Y-29346247D01*
X33860714Y-29346247D02*
X33955952Y-29298628D01*
X33955952Y-29298628D02*
X34146428Y-29251009D01*
X34146428Y-29251009D02*
X34241666Y-29203390D01*
X34241666Y-29203390D02*
X34289285Y-29155771D01*
X34289285Y-29155771D02*
X34336904Y-29060533D01*
X34336904Y-29060533D02*
X34336904Y-28965295D01*
X34336904Y-28965295D02*
X34289285Y-28870057D01*
X34289285Y-28870057D02*
X34241666Y-28822438D01*
X34241666Y-28822438D02*
X34146428Y-28774819D01*
X34146428Y-28774819D02*
X33908333Y-28774819D01*
X33908333Y-28774819D02*
X33765476Y-28822438D01*
X32955952Y-29727200D02*
X33051190Y-29774819D01*
X33051190Y-29774819D02*
X33241666Y-29774819D01*
X33241666Y-29774819D02*
X33336904Y-29727200D01*
X33336904Y-29727200D02*
X33384523Y-29631961D01*
X33384523Y-29631961D02*
X33384523Y-29251009D01*
X33384523Y-29251009D02*
X33336904Y-29155771D01*
X33336904Y-29155771D02*
X33241666Y-29108152D01*
X33241666Y-29108152D02*
X33051190Y-29108152D01*
X33051190Y-29108152D02*
X32955952Y-29155771D01*
X32955952Y-29155771D02*
X32908333Y-29251009D01*
X32908333Y-29251009D02*
X32908333Y-29346247D01*
X32908333Y-29346247D02*
X33384523Y-29441485D01*
X32098809Y-29727200D02*
X32194047Y-29774819D01*
X32194047Y-29774819D02*
X32384523Y-29774819D01*
X32384523Y-29774819D02*
X32479761Y-29727200D01*
X32479761Y-29727200D02*
X32527380Y-29631961D01*
X32527380Y-29631961D02*
X32527380Y-29251009D01*
X32527380Y-29251009D02*
X32479761Y-29155771D01*
X32479761Y-29155771D02*
X32384523Y-29108152D01*
X32384523Y-29108152D02*
X32194047Y-29108152D01*
X32194047Y-29108152D02*
X32098809Y-29155771D01*
X32098809Y-29155771D02*
X32051190Y-29251009D01*
X32051190Y-29251009D02*
X32051190Y-29346247D01*
X32051190Y-29346247D02*
X32527380Y-29441485D01*
X31241666Y-29727200D02*
X31336904Y-29774819D01*
X31336904Y-29774819D02*
X31527380Y-29774819D01*
X31527380Y-29774819D02*
X31622618Y-29727200D01*
X31622618Y-29727200D02*
X31670237Y-29631961D01*
X31670237Y-29631961D02*
X31670237Y-29251009D01*
X31670237Y-29251009D02*
X31622618Y-29155771D01*
X31622618Y-29155771D02*
X31527380Y-29108152D01*
X31527380Y-29108152D02*
X31336904Y-29108152D01*
X31336904Y-29108152D02*
X31241666Y-29155771D01*
X31241666Y-29155771D02*
X31194047Y-29251009D01*
X31194047Y-29251009D02*
X31194047Y-29346247D01*
X31194047Y-29346247D02*
X31670237Y-29441485D01*
X30336904Y-29774819D02*
X30336904Y-28774819D01*
X30336904Y-29727200D02*
X30432142Y-29774819D01*
X30432142Y-29774819D02*
X30622618Y-29774819D01*
X30622618Y-29774819D02*
X30717856Y-29727200D01*
X30717856Y-29727200D02*
X30765475Y-29679580D01*
X30765475Y-29679580D02*
X30813094Y-29584342D01*
X30813094Y-29584342D02*
X30813094Y-29298628D01*
X30813094Y-29298628D02*
X30765475Y-29203390D01*
X30765475Y-29203390D02*
X30717856Y-29155771D01*
X30717856Y-29155771D02*
X30622618Y-29108152D01*
X30622618Y-29108152D02*
X30432142Y-29108152D01*
X30432142Y-29108152D02*
X30336904Y-29155771D01*
X29146427Y-29727200D02*
X29003570Y-29774819D01*
X29003570Y-29774819D02*
X28765475Y-29774819D01*
X28765475Y-29774819D02*
X28670237Y-29727200D01*
X28670237Y-29727200D02*
X28622618Y-29679580D01*
X28622618Y-29679580D02*
X28574999Y-29584342D01*
X28574999Y-29584342D02*
X28574999Y-29489104D01*
X28574999Y-29489104D02*
X28622618Y-29393866D01*
X28622618Y-29393866D02*
X28670237Y-29346247D01*
X28670237Y-29346247D02*
X28765475Y-29298628D01*
X28765475Y-29298628D02*
X28955951Y-29251009D01*
X28955951Y-29251009D02*
X29051189Y-29203390D01*
X29051189Y-29203390D02*
X29098808Y-29155771D01*
X29098808Y-29155771D02*
X29146427Y-29060533D01*
X29146427Y-29060533D02*
X29146427Y-28965295D01*
X29146427Y-28965295D02*
X29098808Y-28870057D01*
X29098808Y-28870057D02*
X29051189Y-28822438D01*
X29051189Y-28822438D02*
X28955951Y-28774819D01*
X28955951Y-28774819D02*
X28717856Y-28774819D01*
X28717856Y-28774819D02*
X28574999Y-28822438D01*
X28289284Y-29108152D02*
X27908332Y-29108152D01*
X28146427Y-28774819D02*
X28146427Y-29631961D01*
X28146427Y-29631961D02*
X28098808Y-29727200D01*
X28098808Y-29727200D02*
X28003570Y-29774819D01*
X28003570Y-29774819D02*
X27908332Y-29774819D01*
X27146427Y-29108152D02*
X27146427Y-29774819D01*
X27574998Y-29108152D02*
X27574998Y-29631961D01*
X27574998Y-29631961D02*
X27527379Y-29727200D01*
X27527379Y-29727200D02*
X27432141Y-29774819D01*
X27432141Y-29774819D02*
X27289284Y-29774819D01*
X27289284Y-29774819D02*
X27194046Y-29727200D01*
X27194046Y-29727200D02*
X27146427Y-29679580D01*
X26241665Y-29774819D02*
X26241665Y-28774819D01*
X26241665Y-29727200D02*
X26336903Y-29774819D01*
X26336903Y-29774819D02*
X26527379Y-29774819D01*
X26527379Y-29774819D02*
X26622617Y-29727200D01*
X26622617Y-29727200D02*
X26670236Y-29679580D01*
X26670236Y-29679580D02*
X26717855Y-29584342D01*
X26717855Y-29584342D02*
X26717855Y-29298628D01*
X26717855Y-29298628D02*
X26670236Y-29203390D01*
X26670236Y-29203390D02*
X26622617Y-29155771D01*
X26622617Y-29155771D02*
X26527379Y-29108152D01*
X26527379Y-29108152D02*
X26336903Y-29108152D01*
X26336903Y-29108152D02*
X26241665Y-29155771D01*
X25765474Y-29774819D02*
X25765474Y-29108152D01*
X25765474Y-28774819D02*
X25813093Y-28822438D01*
X25813093Y-28822438D02*
X25765474Y-28870057D01*
X25765474Y-28870057D02*
X25717855Y-28822438D01*
X25717855Y-28822438D02*
X25765474Y-28774819D01*
X25765474Y-28774819D02*
X25765474Y-28870057D01*
X25146427Y-29774819D02*
X25241665Y-29727200D01*
X25241665Y-29727200D02*
X25289284Y-29679580D01*
X25289284Y-29679580D02*
X25336903Y-29584342D01*
X25336903Y-29584342D02*
X25336903Y-29298628D01*
X25336903Y-29298628D02*
X25289284Y-29203390D01*
X25289284Y-29203390D02*
X25241665Y-29155771D01*
X25241665Y-29155771D02*
X25146427Y-29108152D01*
X25146427Y-29108152D02*
X25003570Y-29108152D01*
X25003570Y-29108152D02*
X24908332Y-29155771D01*
X24908332Y-29155771D02*
X24860713Y-29203390D01*
X24860713Y-29203390D02*
X24813094Y-29298628D01*
X24813094Y-29298628D02*
X24813094Y-29584342D01*
X24813094Y-29584342D02*
X24860713Y-29679580D01*
X24860713Y-29679580D02*
X24908332Y-29727200D01*
X24908332Y-29727200D02*
X25003570Y-29774819D01*
X25003570Y-29774819D02*
X25146427Y-29774819D01*
X31098808Y-30774819D02*
X30432142Y-31774819D01*
X30432142Y-30774819D02*
X31098808Y-31774819D01*
X30051189Y-31774819D02*
X30051189Y-30774819D01*
X29622618Y-31489104D02*
X29146428Y-31489104D01*
X29717856Y-31774819D02*
X29384523Y-30774819D01*
X29384523Y-30774819D02*
X29051190Y-31774819D01*
X28527380Y-30774819D02*
X28336904Y-30774819D01*
X28336904Y-30774819D02*
X28241666Y-30822438D01*
X28241666Y-30822438D02*
X28146428Y-30917676D01*
X28146428Y-30917676D02*
X28098809Y-31108152D01*
X28098809Y-31108152D02*
X28098809Y-31441485D01*
X28098809Y-31441485D02*
X28146428Y-31631961D01*
X28146428Y-31631961D02*
X28241666Y-31727200D01*
X28241666Y-31727200D02*
X28336904Y-31774819D01*
X28336904Y-31774819D02*
X28527380Y-31774819D01*
X28527380Y-31774819D02*
X28622618Y-31727200D01*
X28622618Y-31727200D02*
X28717856Y-31631961D01*
X28717856Y-31631961D02*
X28765475Y-31441485D01*
X28765475Y-31441485D02*
X28765475Y-31108152D01*
X28765475Y-31108152D02*
X28717856Y-30917676D01*
X28717856Y-30917676D02*
X28622618Y-30822438D01*
X28622618Y-30822438D02*
X28527380Y-30774819D01*
%TO.C,U1*%
D12*
X20675000Y-39320000D02*
X20675000Y-22320000D01*
X22675000Y-20320910D02*
X36475000Y-20320910D01*
X25075000Y-18895970D02*
X25075000Y-26249270D01*
X25075000Y-26249270D02*
X34075000Y-26249270D01*
X34075000Y-18895970D02*
X25075000Y-18895970D01*
X34075000Y-26249270D02*
X34075000Y-18895970D01*
X36475000Y-41320000D02*
X22675000Y-41320000D01*
X38475000Y-22320000D02*
X38475000Y-39320000D01*
D13*
X20675000Y-22320000D02*
G75*
G02*
X22675000Y-20320000I2044610J-44610D01*
G01*
X22675000Y-41320000D02*
G75*
G02*
X20675000Y-39320000I0J2000000D01*
G01*
X36475000Y-20320000D02*
G75*
G02*
X38475000Y-22320000I-44612J-2044612D01*
G01*
X38475000Y-39320000D02*
G75*
G02*
X36475000Y-41320000I-2044857J44857D01*
G01*
D14*
X40702000Y-22020000D02*
G75*
G02*
X40448000Y-22020000I-127000J0D01*
G01*
X40448000Y-22020000D02*
G75*
G02*
X40702000Y-22020000I127000J0D01*
G01*
D15*
X38459667Y-22209527D02*
X38462715Y-22258295D01*
X38455603Y-22160506D01*
X38459667Y-22209527D01*
X20732752Y-39730955D02*
X20722847Y-39682950D01*
X20713956Y-39634690D01*
X20706336Y-39586175D01*
X20699732Y-39537407D01*
X20694399Y-39488639D01*
X20690335Y-39439618D01*
X20687287Y-39390850D01*
X20685508Y-39341574D01*
X20732752Y-39730955D01*
%TD*%
M02*
