M48
; DRILL file KiCad 10.0.1 date 2026-06-24T10:36:11
; FORMAT={-:-/ absolute / metric / decimal}
; #@! TF.CreationDate,2026-06-24T10:36:11-04:00
; #@! TF.GenerationSoftware,Kicad,Pcbnew,10.0.1
; #@! TF.FileFunction,Plated,1,2,PTH
FMAT,2
METRIC
; #@! TA.AperFunction,Plated,PTH,ViaDrill
T1C0.300
; #@! TA.AperFunction,Plated,PTH,ComponentDrill
T2C0.800
; #@! TA.AperFunction,Plated,PTH,ComponentDrill
T3C1.000
; #@! TA.AperFunction,Plated,PTH,ComponentDrill
T4C1.500
%
G90
G05
T1
X24.074Y-35.074
X24.8Y-34.4
X33.85Y-26.55
X35.05Y-35.061
X44.45Y-37.25
X45.85Y-38.7
T2
X60.8Y-36.22
X60.8Y-46.38
X64.17Y-36.7
X74.33Y-36.7
T3
X21.95Y-23.2
X21.95Y-25.74
X21.95Y-28.28
X21.95Y-30.82
X21.95Y-33.36
X21.95Y-35.9
X21.95Y-38.44
X37.2Y-23.2
X37.2Y-25.74
X37.2Y-28.28
X37.2Y-30.82
X37.2Y-33.36
X37.2Y-35.9
X37.2Y-38.44
X60.75Y-24.7
X60.75Y-27.2
X60.75Y-29.7
X65.305Y-40.45
X67.845Y-40.45
X70.385Y-40.45
X72.925Y-40.45
X75.25Y-24.7
X75.25Y-29.7
T4
X25.86Y-27.07
X25.86Y-46.46
X25.86Y-65.74
X32.21Y-24.53
X32.21Y-43.92
X32.21Y-63.2
X45.22Y-27.07
X45.22Y-46.46
X45.22Y-65.74
X51.57Y-24.53
X51.57Y-43.92
X51.57Y-63.2
T4
G00X67.6Y-21.6
M15
G01X68.9Y-21.6
M16
G05
G00X67.6Y-32.8
M15
G01X68.9Y-32.8
M16
G05
M30
