%TF.GenerationSoftware,KiCad,Pcbnew,10.0.1*%
%TF.CreationDate,2026-04-26T03:30:13-04:00*%
%TF.ProjectId,MacropadV1,4d616372-6f70-4616-9456-312e6b696361,rev?*%
%TF.SameCoordinates,Original*%
%TF.FileFunction,Copper,L2,Bot*%
%TF.FilePolarity,Positive*%
%FSLAX46Y46*%
G04 Gerber Fmt 4.6, Leading zero omitted, Abs format (unit mm)*
G04 Created by KiCad (PCBNEW 10.0.1) date 2026-04-26 03:30:13*
%MOMM*%
%LPD*%
G01*
G04 APERTURE LIST*
%TA.AperFunction,ComponentPad*%
%ADD10C,2.200000*%
%TD*%
%TA.AperFunction,ComponentPad*%
%ADD11C,1.600000*%
%TD*%
%TA.AperFunction,ComponentPad*%
%ADD12R,1.700000X1.700000*%
%TD*%
%TA.AperFunction,ComponentPad*%
%ADD13O,1.700000X1.700000*%
%TD*%
%TA.AperFunction,ComponentPad*%
%ADD14R,2.000000X2.000000*%
%TD*%
%TA.AperFunction,ComponentPad*%
%ADD15C,2.000000*%
%TD*%
%TA.AperFunction,ComponentPad*%
%ADD16R,3.200000X2.000000*%
%TD*%
%TA.AperFunction,ComponentPad*%
%ADD17R,3.500000X1.700000*%
%TD*%
%TA.AperFunction,ComponentPad*%
%ADD18O,3.600000X1.700000*%
%TD*%
%TA.AperFunction,ComponentPad*%
%ADD19O,3.700000X1.700000*%
%TD*%
%TA.AperFunction,ViaPad*%
%ADD20C,0.600000*%
%TD*%
%TA.AperFunction,Conductor*%
%ADD21C,0.200000*%
%TD*%
G04 APERTURE END LIST*
D10*
%TO.P,SW6,1,1_1*%
%TO.N,Net-(D6-A)*%
X51570000Y-63200000D03*
%TO.P,SW6,2,2_2*%
%TO.N,col1*%
X45220000Y-65740000D03*
%TD*%
D11*
%TO.P,R1,1*%
%TO.N,Net-(J1-Pin_2)*%
X74330000Y-36700000D03*
%TO.P,R1,2*%
%TO.N,Net-(U1-PA9_A5_D5_SCL)*%
X64170000Y-36700000D03*
%TD*%
D10*
%TO.P,SW5,1,1_1*%
%TO.N,Net-(D5-A)*%
X51570000Y-43920000D03*
%TO.P,SW5,2,2_2*%
%TO.N,col1*%
X45220000Y-46460000D03*
%TD*%
D12*
%TO.P,J1,1,Pin_1_1*%
%TO.N,Net-(J1-Pin_1)*%
X65270000Y-40450000D03*
D13*
%TO.P,J1,2,Pin_2_2*%
%TO.N,Net-(J1-Pin_2)*%
X67810001Y-40450000D03*
%TO.P,J1,3,Pin_3_3*%
%TO.N,GND*%
X70350000Y-40450000D03*
%TO.P,J1,4,Pin_4_4*%
%TO.N,VCC*%
X72890000Y-40450000D03*
%TD*%
D10*
%TO.P,SW3,1,1_1*%
%TO.N,Net-(D3-A)*%
X32210000Y-63200000D03*
%TO.P,SW3,2,2_2*%
%TO.N,col2*%
X25860000Y-65740000D03*
%TD*%
D14*
%TO.P,SW10,A,A_A*%
%TO.N,ec11 a*%
X60750000Y-24700000D03*
D15*
%TO.P,SW10,B,B_B*%
%TO.N,ec11 b*%
X60750000Y-29700000D03*
%TO.P,SW10,C,C_C*%
%TO.N,GND*%
X60750000Y-27200000D03*
D16*
%TO.P,SW10,MP*%
%TO.N,N/C*%
X68250000Y-21600000D03*
X68250000Y-32800000D03*
D15*
%TO.P,SW10,S1,S1_S1*%
%TO.N,GND*%
X75250000Y-29700000D03*
%TO.P,SW10,S2,S2_S2*%
%TO.N,ec11 sw*%
X75250000Y-24700000D03*
%TD*%
D10*
%TO.P,SW4,1,1_1*%
%TO.N,Net-(D4-A)*%
X51570000Y-24530000D03*
%TO.P,SW4,2,2_2*%
%TO.N,col1*%
X45220000Y-27070000D03*
%TD*%
%TO.P,SW1,1,1_1*%
%TO.N,Net-(D1-A)*%
X32210000Y-24530000D03*
%TO.P,SW1,2,2_2*%
%TO.N,col2*%
X25860000Y-27070000D03*
%TD*%
%TO.P,SW2,1,1_1*%
%TO.N,Net-(D2-A)*%
X32210000Y-43920000D03*
%TO.P,SW2,2,2_2*%
%TO.N,col2*%
X25860000Y-46460000D03*
%TD*%
D11*
%TO.P,R2,1*%
%TO.N,Net-(J1-Pin_1)*%
X60800000Y-46380000D03*
%TO.P,R2,2*%
%TO.N,Net-(U1-PB08_A6_D6_TX)*%
X60800000Y-36220000D03*
%TD*%
D17*
%TO.P,U1,1,PA02_A0_D0_1*%
%TO.N,ec11 a*%
X38200000Y-23200000D03*
D18*
%TO.P,U1,2,PA4_A1_D1_2*%
%TO.N,ec11 b*%
X38200000Y-25740000D03*
%TO.P,U1,3,PA10_A2_D2_3*%
%TO.N,row1*%
X38200000Y-28280000D03*
%TO.P,U1,4,PA11_A3_D3_4*%
%TO.N,row2*%
X38200000Y-30820000D03*
%TO.P,U1,5,PA8_A4_D4_SDA_5*%
%TO.N,row3*%
X38200000Y-33360000D03*
%TO.P,U1,6,PA9_A5_D5_SCL_6*%
%TO.N,Net-(U1-PA9_A5_D5_SCL)*%
X38200000Y-35900000D03*
%TO.P,U1,7,PB08_A6_D6_TX_7*%
%TO.N,Net-(U1-PB08_A6_D6_TX)*%
X38200000Y-38440000D03*
%TO.P,U1,8,PB09_A7_D7_RX_8*%
%TO.N,ec11 sw*%
X20950000Y-38440000D03*
%TO.P,U1,9,PA7_A8_D8_SCK_9*%
%TO.N,unconnected-(U1-PA7_A8_D8_SCK-Pad9)*%
X20950000Y-35900000D03*
%TO.P,U1,10,PA5_A9_D9_MISO_10*%
%TO.N,col2*%
X20950000Y-33360000D03*
D19*
%TO.P,U1,11,PA6_A10_D10_MOSI_11*%
%TO.N,col1*%
X20950000Y-30820000D03*
%TO.P,U1,12,3V3_12*%
%TO.N,VCC*%
X20950000Y-28280000D03*
%TO.P,U1,13,GND_13*%
%TO.N,GND*%
X20950000Y-25740000D03*
%TO.P,U1,14,5V_14*%
%TO.N,unconnected-(U1-5V-Pad14)*%
X20950000Y-23200000D03*
%TD*%
D20*
%TO.N,col1*%
X45250000Y-33000000D03*
X26650000Y-30800000D03*
%TO.N,Net-(U1-PB08_A6_D6_TX)*%
X41000000Y-38750000D03*
X45850000Y-38700000D03*
%TD*%
%TO.N,col1*%
D21*
X26650000Y-28261314D02*
X26650000Y-30800000D01*
X45220000Y-33030000D02*
X45250000Y-33000000D01*
X45220000Y-27070000D02*
X27841314Y-27070000D01*
X45220000Y-46460000D02*
X45220000Y-33030000D01*
X45220000Y-65740000D02*
X45220000Y-46460000D01*
X27841314Y-27070000D02*
X26650000Y-28261314D01*
%TO.N,Net-(U1-PA9_A5_D5_SCL)*%
X45003530Y-71032000D02*
X36050000Y-62078470D01*
X36050000Y-37050000D02*
X37200000Y-35900000D01*
X64170000Y-36700000D02*
X66450000Y-38980000D01*
X66450000Y-57638470D02*
X53056470Y-71032000D01*
X53056470Y-71032000D02*
X45003530Y-71032000D01*
X36050000Y-62078470D02*
X36050000Y-37050000D01*
X66450000Y-38980000D02*
X66450000Y-57638470D01*
%TO.N,col2*%
X25860000Y-27070000D02*
X25860000Y-46460000D01*
X24100000Y-44700000D02*
X24100000Y-35510000D01*
X25860000Y-65740000D02*
X25860000Y-46460000D01*
X24100000Y-35510000D02*
X21950000Y-33360000D01*
X25860000Y-46460000D02*
X24100000Y-44700000D01*
%TO.N,ec11 sw*%
X76551000Y-77399000D02*
X76500000Y-77450000D01*
X20200000Y-77500000D02*
X20200000Y-40190000D01*
X20250000Y-77450000D02*
X20200000Y-77500000D01*
X20200000Y-40190000D02*
X21950000Y-38440000D01*
X76551000Y-26001000D02*
X76551000Y-77399000D01*
X75250000Y-24700000D02*
X76551000Y-26001000D01*
X76500000Y-77450000D02*
X20250000Y-77450000D01*
%TO.N,Net-(U1-PB08_A6_D6_TX)*%
X48330000Y-36220000D02*
X45850000Y-38700000D01*
X60800000Y-36220000D02*
X48330000Y-36220000D01*
X41000000Y-38750000D02*
X37510000Y-38750000D01*
X37510000Y-38750000D02*
X37200000Y-38440000D01*
%TD*%
M02*
