%TF.GenerationSoftware,KiCad,Pcbnew,10.0.1*%
%TF.CreationDate,2026-06-24T10:41:38-04:00*%
%TF.ProjectId,MacropadV1,4d616372-6f70-4616-9456-312e6b696361,rev?*%
%TF.SameCoordinates,Original*%
%TF.FileFunction,Copper,L1,Top*%
%TF.FilePolarity,Positive*%
%FSLAX46Y46*%
G04 Gerber Fmt 4.6, Leading zero omitted, Abs format (unit mm)*
G04 Created by KiCad (PCBNEW 10.0.1) date 2026-06-24 10:41:38*
%MOMM*%
%LPD*%
G01*
G04 APERTURE LIST*
G04 Aperture macros list*
%AMRoundRect*
0 Rectangle with rounded corners*
0 $1 Rounding radius*
0 $2 $3 $4 $5 $6 $7 $8 $9 X,Y pos of 4 corners*
0 Add a 4 corners polygon primitive as box body*
4,1,4,$2,$3,$4,$5,$6,$7,$8,$9,$2,$3,0*
0 Add four circle primitives for the rounded corners*
1,1,$1+$1,$2,$3*
1,1,$1+$1,$4,$5*
1,1,$1+$1,$6,$7*
1,1,$1+$1,$8,$9*
0 Add four rect primitives between the rounded corners*
20,1,$1+$1,$2,$3,$4,$5,0*
20,1,$1+$1,$4,$5,$6,$7,0*
20,1,$1+$1,$6,$7,$8,$9,0*
20,1,$1+$1,$8,$9,$2,$3,0*%
G04 Aperture macros list end*
%TA.AperFunction,SMDPad,CuDef*%
%ADD10RoundRect,0.225000X-0.375000X0.225000X-0.375000X-0.225000X0.375000X-0.225000X0.375000X0.225000X0*%
%TD*%
%TA.AperFunction,ComponentPad*%
%ADD11R,1.700000X1.700000*%
%TD*%
%TA.AperFunction,ComponentPad*%
%ADD12O,1.700000X1.700000*%
%TD*%
%TA.AperFunction,ComponentPad*%
%ADD13C,2.200000*%
%TD*%
%TA.AperFunction,ComponentPad*%
%ADD14C,1.600000*%
%TD*%
%TA.AperFunction,SMDPad,CuDef*%
%ADD15RoundRect,0.225000X0.225000X0.375000X-0.225000X0.375000X-0.225000X-0.375000X0.225000X-0.375000X0*%
%TD*%
%TA.AperFunction,ComponentPad*%
%ADD16R,2.000000X2.000000*%
%TD*%
%TA.AperFunction,ComponentPad*%
%ADD17C,2.000000*%
%TD*%
%TA.AperFunction,ComponentPad*%
%ADD18R,3.200000X2.000000*%
%TD*%
%TA.AperFunction,SMDPad,CuDef*%
%ADD19RoundRect,0.225000X-0.225000X-0.375000X0.225000X-0.375000X0.225000X0.375000X-0.225000X0.375000X0*%
%TD*%
%TA.AperFunction,ComponentPad*%
%ADD20R,3.500000X1.700000*%
%TD*%
%TA.AperFunction,ComponentPad*%
%ADD21O,3.600000X1.700000*%
%TD*%
%TA.AperFunction,ComponentPad*%
%ADD22O,3.700000X1.700000*%
%TD*%
%TA.AperFunction,ViaPad*%
%ADD23C,0.600000*%
%TD*%
%TA.AperFunction,Conductor*%
%ADD24C,0.200000*%
%TD*%
G04 APERTURE END LIST*
D10*
%TO.P,D6,1,K_1*%
%TO.N,row3*%
X42900000Y-56550000D03*
%TO.P,D6,2,A_2*%
%TO.N,Net-(D6-A)*%
X42900000Y-59850000D03*
%TD*%
D11*
%TO.P,J1,1,Pin_1_1*%
%TO.N,GND*%
X65305000Y-40450000D03*
D12*
%TO.P,J1,2,Pin_2_2*%
%TO.N,VCC*%
X67845001Y-40450000D03*
%TO.P,J1,3,Pin_3_3*%
%TO.N,Net-(J1-Pin_3)*%
X70385000Y-40450000D03*
%TO.P,J1,4,Pin_4_4*%
%TO.N,Net-(J1-Pin_4)*%
X72925000Y-40450000D03*
%TD*%
D13*
%TO.P,SW6,1,1_1*%
%TO.N,Net-(D6-A)*%
X51570000Y-63200000D03*
%TO.P,SW6,2,2_2*%
%TO.N,col1*%
X45220000Y-65740000D03*
%TD*%
D14*
%TO.P,R1,1*%
%TO.N,Net-(J1-Pin_4)*%
X74330000Y-36700000D03*
%TO.P,R1,2*%
%TO.N,Net-(U1-PA8_A4_D4_SDA)*%
X64170000Y-36700000D03*
%TD*%
D13*
%TO.P,SW5,1,1_1*%
%TO.N,Net-(D5-A)*%
X51570000Y-43920000D03*
%TO.P,SW5,2,2_2*%
%TO.N,col1*%
X45220000Y-46460000D03*
%TD*%
D10*
%TO.P,D5,1,K_1*%
%TO.N,row2*%
X57300000Y-36850000D03*
%TO.P,D5,2,A_2*%
%TO.N,Net-(D5-A)*%
X57300000Y-40150000D03*
%TD*%
D13*
%TO.P,SW3,1,1_1*%
%TO.N,Net-(D3-A)*%
X32210000Y-63200000D03*
%TO.P,SW3,2,2_2*%
%TO.N,col2*%
X25860000Y-65740000D03*
%TD*%
D15*
%TO.P,D1,1,K_1*%
%TO.N,row1*%
X33850001Y-21400000D03*
%TO.P,D1,2,A_2*%
%TO.N,Net-(D1-A)*%
X30550001Y-21400000D03*
%TD*%
D16*
%TO.P,SW10,A,A_A*%
%TO.N,ec11 a*%
X60750000Y-24700000D03*
D17*
%TO.P,SW10,B,B_B*%
%TO.N,ec11 b*%
X60750000Y-29700000D03*
%TO.P,SW10,C,C_C*%
%TO.N,GND*%
X60750000Y-27200000D03*
D18*
%TO.P,SW10,MP*%
%TO.N,N/C*%
X68250000Y-21600000D03*
X68250000Y-32800000D03*
D17*
%TO.P,SW10,S1,S1_S1*%
%TO.N,GND*%
X75250000Y-29700000D03*
%TO.P,SW10,S2,S2_S2*%
%TO.N,ec11 sw*%
X75250000Y-24700000D03*
%TD*%
D13*
%TO.P,SW4,1,1_1*%
%TO.N,Net-(D4-A)*%
X51570000Y-24530000D03*
%TO.P,SW4,2,2_2*%
%TO.N,col1*%
X45220000Y-27070000D03*
%TD*%
D10*
%TO.P,D2,1,K_1*%
%TO.N,row2*%
X32400000Y-37700000D03*
%TO.P,D2,2,A_2*%
%TO.N,Net-(D2-A)*%
X32400000Y-41000000D03*
%TD*%
D13*
%TO.P,SW1,1,1_1*%
%TO.N,Net-(D1-A)*%
X32210000Y-24530000D03*
%TO.P,SW1,2,2_2*%
%TO.N,col2*%
X25860000Y-27070000D03*
%TD*%
D19*
%TO.P,D4,1,K_1*%
%TO.N,row1*%
X44050000Y-21250000D03*
%TO.P,D4,2,A_2*%
%TO.N,Net-(D4-A)*%
X47350000Y-21250000D03*
%TD*%
D13*
%TO.P,SW2,1,1_1*%
%TO.N,Net-(D2-A)*%
X32210000Y-43920000D03*
%TO.P,SW2,2,2_2*%
%TO.N,col2*%
X25860000Y-46460000D03*
%TD*%
D10*
%TO.P,D3,1,K_1*%
%TO.N,row3*%
X37650000Y-56500000D03*
%TO.P,D3,2,A_2*%
%TO.N,Net-(D3-A)*%
X37650000Y-59800000D03*
%TD*%
D14*
%TO.P,R2,1*%
%TO.N,Net-(J1-Pin_3)*%
X60800000Y-46380000D03*
%TO.P,R2,2*%
%TO.N,Net-(U1-PA9_A5_D5_SCL)*%
X60800000Y-36220000D03*
%TD*%
D20*
%TO.P,U1,1,PA02_A0_D0_1*%
%TO.N,ec11 a*%
X38200000Y-23200000D03*
D21*
%TO.P,U1,2,PA4_A1_D1_2*%
%TO.N,ec11 b*%
X38200000Y-25740000D03*
%TO.P,U1,3,PA10_A2_D2_3*%
%TO.N,col1*%
X38200000Y-28280000D03*
%TO.P,U1,4,PA11_A3_D3_4*%
%TO.N,col2*%
X38200000Y-30820000D03*
%TO.P,U1,5,PA8_A4_D4_SDA_5*%
%TO.N,Net-(U1-PA8_A4_D4_SDA)*%
X38200000Y-33360000D03*
%TO.P,U1,6,PA9_A5_D5_SCL_6*%
%TO.N,Net-(U1-PA9_A5_D5_SCL)*%
X38200000Y-35900000D03*
%TO.P,U1,7,PB08_A6_D6_TX_7*%
%TO.N,unconnected-(U1-PB08_A6_D6_TX-Pad7)*%
X38200000Y-38440000D03*
%TO.P,U1,8,PB09_A7_D7_RX_8*%
%TO.N,ec11 sw*%
X20950000Y-38440000D03*
%TO.P,U1,9,PA7_A8_D8_SCK_9*%
%TO.N,row1*%
X20950000Y-35900000D03*
%TO.P,U1,10,PA5_A9_D9_MISO_10*%
%TO.N,row2*%
X20950000Y-33360000D03*
D22*
%TO.P,U1,11,PA6_A10_D10_MOSI_11*%
%TO.N,row3*%
X20950000Y-30820000D03*
%TO.P,U1,12,3V3_12*%
%TO.N,VCC*%
X20950000Y-28280000D03*
%TO.P,U1,13,GND_13*%
%TO.N,GND*%
X20950000Y-25740000D03*
%TO.P,U1,14,5V_14*%
%TO.N,unconnected-(U1-5V-Pad14)*%
X20950000Y-23200000D03*
%TD*%
D23*
%TO.N,row3*%
X24800000Y-34400000D03*
%TO.N,row2*%
X35050000Y-35061000D03*
X24073529Y-35073529D03*
X44450000Y-37250000D03*
%TO.N,row1*%
X33850000Y-26550000D03*
%TO.N,Net-(U1-PA9_A5_D5_SCL)*%
X45850000Y-38700000D03*
%TD*%
%TO.N,row3*%
D24*
X36099000Y-55349001D02*
X36099000Y-34461000D01*
X36099000Y-34461000D02*
X24861000Y-34461000D01*
X42900000Y-56550000D02*
X42700000Y-56550000D01*
X42650000Y-56500000D02*
X37650000Y-56500000D01*
X36499001Y-55349001D02*
X36099000Y-55349001D01*
X24861000Y-34461000D02*
X24800000Y-34400000D01*
X42700000Y-56550000D02*
X42650000Y-56500000D01*
X37650000Y-56500000D02*
X36499001Y-55349001D01*
%TO.N,Net-(D6-A)*%
X42900000Y-59850000D02*
X43300002Y-59850000D01*
X51570000Y-63200000D02*
X46650001Y-63200000D01*
X46650001Y-63200000D02*
X45175001Y-61724999D01*
X43300002Y-59850000D02*
X45175001Y-61724999D01*
%TO.N,GND*%
X67605000Y-38150000D02*
X74435635Y-38150000D01*
X76250000Y-36335635D02*
X76250000Y-30700000D01*
X65305000Y-40450000D02*
X67605000Y-38150000D01*
X72750000Y-27200000D02*
X60750000Y-27200000D01*
X58700000Y-20050000D02*
X27640000Y-20050000D01*
X74435635Y-38150000D02*
X76250000Y-36335635D01*
X75250000Y-29700000D02*
X72750000Y-27200000D01*
X27640000Y-20050000D02*
X21950000Y-25740000D01*
X76250000Y-30700000D02*
X75250000Y-29700000D01*
X62050000Y-23400000D02*
X58700000Y-20050000D01*
X62050000Y-25900000D02*
X62050000Y-23400000D01*
X60750000Y-27200000D02*
X62050000Y-25900000D01*
%TO.N,VCC*%
X72890000Y-77110000D02*
X72750000Y-77250000D01*
X27250000Y-31048529D02*
X27250000Y-30551471D01*
X24978529Y-28280000D02*
X21950000Y-28280000D01*
X27250000Y-30551471D02*
X24978529Y-28280000D01*
X72750000Y-77250000D02*
X24250000Y-77250000D01*
X23070000Y-35228529D02*
X27250000Y-31048529D01*
X23070000Y-76070000D02*
X23070000Y-35228529D01*
X72890000Y-45494999D02*
X72890000Y-77110000D01*
X24250000Y-77250000D02*
X23070000Y-76070000D01*
X67845001Y-40450000D02*
X72890000Y-45494999D01*
%TO.N,Net-(J1-Pin_3)*%
X69235000Y-39300000D02*
X67128654Y-39300000D01*
X67128654Y-39300000D02*
X66455000Y-39973654D01*
X66455000Y-41856370D02*
X61931370Y-46380000D01*
X61931370Y-46380000D02*
X60800000Y-46380000D01*
X70385000Y-40450000D02*
X69235000Y-39300000D01*
X66455000Y-39973654D02*
X66455000Y-41856370D01*
%TO.N,Net-(U1-PA8_A4_D4_SDA)*%
X38237760Y-33360000D02*
X37200000Y-33360000D01*
%TO.N,Net-(D5-A)*%
X55340000Y-40150000D02*
X57300000Y-40150000D01*
X51570000Y-43920000D02*
X55340000Y-40150000D01*
%TO.N,row2*%
X32400000Y-37700000D02*
X32411000Y-37700000D01*
X44850000Y-36850000D02*
X57300000Y-36850000D01*
X44450000Y-37250000D02*
X44850000Y-36850000D01*
X26700000Y-37700000D02*
X24073529Y-35073529D01*
X32411000Y-37700000D02*
X35050000Y-35061000D01*
X32400000Y-37700000D02*
X26700000Y-37700000D01*
%TO.N,Net-(D3-A)*%
X37650000Y-59800000D02*
X34250000Y-63200000D01*
X34250000Y-63200000D02*
X32210000Y-63200000D01*
%TO.N,col2*%
X34203402Y-30820000D02*
X37200000Y-30820000D01*
X30453402Y-27070000D02*
X34203402Y-30820000D01*
X25860000Y-27070000D02*
X30453402Y-27070000D01*
%TO.N,row1*%
X33850001Y-26549999D02*
X33850000Y-26550000D01*
X44050000Y-21250000D02*
X34000001Y-21250000D01*
X33850001Y-21400000D02*
X33850001Y-26549999D01*
X34000001Y-21250000D02*
X33850001Y-21400000D01*
%TO.N,Net-(D1-A)*%
X30950002Y-21400000D02*
X32210000Y-22659998D01*
X32210000Y-24530000D02*
X32210000Y-22659998D01*
X30550001Y-21400000D02*
X30950002Y-21400000D01*
%TO.N,ec11 a*%
X43898414Y-23200000D02*
X37200000Y-23200000D01*
X59519000Y-25931000D02*
X46629414Y-25931000D01*
X46629414Y-25931000D02*
X43898414Y-23200000D01*
X60750000Y-24700000D02*
X59519000Y-25931000D01*
%TO.N,ec11 b*%
X57400000Y-26332000D02*
X57400000Y-26350000D01*
X46463314Y-26332000D02*
X57400000Y-26332000D01*
X37200000Y-25740000D02*
X44310000Y-25740000D01*
X45090657Y-24959343D02*
X46463314Y-26332000D01*
X37271000Y-25669000D02*
X37200000Y-25740000D01*
X44310000Y-25740000D02*
X45090657Y-24959343D01*
X57400000Y-26350000D02*
X60750000Y-29700000D01*
%TO.N,Net-(D4-A)*%
X47350000Y-21250000D02*
X48290000Y-21250000D01*
X51570000Y-24530000D02*
X48290000Y-21250000D01*
%TO.N,Net-(D2-A)*%
X32210000Y-41190000D02*
X32400000Y-41000000D01*
X32210000Y-43920000D02*
X32210000Y-41190000D01*
%TO.N,Net-(U1-PA9_A5_D5_SCL)*%
X38250000Y-35900000D02*
X37200000Y-35900000D01*
X45850000Y-38700000D02*
X41050000Y-38700000D01*
X41050000Y-38700000D02*
X38250000Y-35900000D01*
%TD*%
M02*
