%TF.GenerationSoftware,KiCad,Pcbnew,10.0.1*%
%TF.CreationDate,2026-04-26T03:30:13-04:00*%
%TF.ProjectId,MacropadV1,4d616372-6f70-4616-9456-312e6b696361,rev?*%
%TF.SameCoordinates,Original*%
%TF.FileFunction,Soldermask,Top*%
%TF.FilePolarity,Negative*%
%FSLAX46Y46*%
G04 Gerber Fmt 4.6, Leading zero omitted, Abs format (unit mm)*
G04 Created by KiCad (PCBNEW 10.0.1) date 2026-04-26 03:30:13*
%MOMM*%
%LPD*%
G01*
G04 APERTURE LIST*
G04 Aperture macros list*
%AMRoundRect*
0 Rectangle with rounded corners*
0 $1 Rounding radius*
0 $2 $3 $4 $5 $6 $7 $8 $9 X,Y pos of 4 corners*
0 Add a 4 corners polygon primitive as box body*
4,1,4,$2,$3,$4,$5,$6,$7,$8,$9,$2,$3,0*
0 Add four circle primitives for the rounded corners*
1,1,$1+$1,$2,$3*
1,1,$1+$1,$4,$5*
1,1,$1+$1,$6,$7*
1,1,$1+$1,$8,$9*
0 Add four rect primitives between the rounded corners*
20,1,$1+$1,$2,$3,$4,$5,0*
20,1,$1+$1,$4,$5,$6,$7,0*
20,1,$1+$1,$6,$7,$8,$9,0*
20,1,$1+$1,$8,$9,$2,$3,0*%
G04 Aperture macros list end*
%ADD10RoundRect,0.225000X-0.375000X0.225000X-0.375000X-0.225000X0.375000X-0.225000X0.375000X0.225000X0*%
%ADD11C,1.700000*%
%ADD12C,4.000000*%
%ADD13C,2.200000*%
%ADD14C,1.600000*%
%ADD15R,1.700000X1.700000*%
%ADD16O,1.700000X1.700000*%
%ADD17RoundRect,0.225000X0.225000X0.375000X-0.225000X0.375000X-0.225000X-0.375000X0.225000X-0.375000X0*%
%ADD18R,2.000000X2.000000*%
%ADD19C,2.000000*%
%ADD20R,3.200000X2.000000*%
%ADD21RoundRect,0.225000X-0.225000X-0.375000X0.225000X-0.375000X0.225000X0.375000X-0.225000X0.375000X0*%
%ADD22R,3.500000X1.700000*%
%ADD23O,3.600000X1.700000*%
%ADD24O,3.700000X1.700000*%
G04 APERTURE END LIST*
D10*
%TO.C,D6*%
X42900000Y-56550000D03*
X42900000Y-59850000D03*
%TD*%
D11*
%TO.C,SW6*%
X43950000Y-68280000D03*
D12*
X49030000Y-68280000D03*
D11*
X54110000Y-68280000D03*
D13*
X51570000Y-63200000D03*
X45220000Y-65740000D03*
%TD*%
D14*
%TO.C,R1*%
X74330000Y-36700000D03*
X64170000Y-36700000D03*
%TD*%
D11*
%TO.C,SW5*%
X43950000Y-49000000D03*
D12*
X49030000Y-49000000D03*
D11*
X54110000Y-49000000D03*
D13*
X51570000Y-43920000D03*
X45220000Y-46460000D03*
%TD*%
D10*
%TO.C,D5*%
X57300000Y-36850000D03*
X57300000Y-40150000D03*
%TD*%
D15*
%TO.C,J1*%
X65270000Y-40450000D03*
D16*
X67810001Y-40450000D03*
X70350000Y-40450000D03*
X72890000Y-40450000D03*
%TD*%
D11*
%TO.C,SW3*%
X24590000Y-68280000D03*
D12*
X29670000Y-68280000D03*
D11*
X34750000Y-68280000D03*
D13*
X32210000Y-63200000D03*
X25860000Y-65740000D03*
%TD*%
D17*
%TO.C,D1*%
X33850001Y-21400000D03*
X30550001Y-21400000D03*
%TD*%
D18*
%TO.C,SW10*%
X60750000Y-24700000D03*
D19*
X60750000Y-29700000D03*
X60750000Y-27200000D03*
D20*
X68250000Y-21600000D03*
X68250000Y-32800000D03*
D19*
X75250000Y-29700000D03*
X75250000Y-24700000D03*
%TD*%
D11*
%TO.C,SW4*%
X43950000Y-29610000D03*
D12*
X49030000Y-29610000D03*
D11*
X54110000Y-29610000D03*
D13*
X51570000Y-24530000D03*
X45220000Y-27070000D03*
%TD*%
D10*
%TO.C,D2*%
X32400000Y-37700000D03*
X32400000Y-41000000D03*
%TD*%
D11*
%TO.C,SW1*%
X24590000Y-29610000D03*
D12*
X29670000Y-29610000D03*
D11*
X34750000Y-29610000D03*
D13*
X32210000Y-24530000D03*
X25860000Y-27070000D03*
%TD*%
D21*
%TO.C,D4*%
X44050000Y-21250000D03*
X47350000Y-21250000D03*
%TD*%
D11*
%TO.C,SW2*%
X24590000Y-49000000D03*
D12*
X29670000Y-49000000D03*
D11*
X34750000Y-49000000D03*
D13*
X32210000Y-43920000D03*
X25860000Y-46460000D03*
%TD*%
D10*
%TO.C,D3*%
X37650000Y-56500000D03*
X37650000Y-59800000D03*
%TD*%
D14*
%TO.C,R2*%
X60800000Y-46380000D03*
X60800000Y-36220000D03*
%TD*%
D22*
%TO.C,U1*%
X38200000Y-23200000D03*
D23*
X38200000Y-25740000D03*
X38200000Y-28280000D03*
X38200000Y-30820000D03*
X38200000Y-33360000D03*
X38200000Y-35900000D03*
X38200000Y-38440000D03*
X20950000Y-38440000D03*
X20950000Y-35900000D03*
X20950000Y-33360000D03*
D24*
X20950000Y-30820000D03*
X20950000Y-28280000D03*
X20950000Y-25740000D03*
X20950000Y-23200000D03*
%TD*%
M02*
